# Alias OBJ Model File
# Exported from SketchUp, (c) 2000-2012 Trimble Navigation Limited
# File units = meters

mtllib Scenario_1_3500mm_skp_to_object_sf_1_test.mtl

g Mesh1 Component_1_1 Model

usemtl FrontColor
v 2.85 1.36846e-48 -6.76792e-16
vt 82.6772 -3.41548e-31
vn 2.57826e-16 -8.33616e-17 1
v 2.85 2.165 -3.15836e-16
vt 82.6772 85.2362
v 0.75 2.165 4.51195e-17
vt -2.04887e-31 85.2362
v 0.75 0 4.51195e-17
vt -5.20063e-31 5.56486e-31
f 1/1/1 2/2/1 3/3/1 4/4/1 

g Mesh2 Component_2_1 Model

v 3.66566 1.36846e-48 -4.96314e-16
vt -5.58996e-30 2.68646e-31
vn -3.00796e-16 0 1
v 4.26566 0 -3.15836e-16
vt 23.622 3.79208e-31
v 4.26566 2.7 -3.15836e-16
vt 23.622 106.299
v 3.66566 2.7 -4.96314e-16
vt -6.08749e-30 106.299
f 5/5/2 6/6/2 7/7/2 8/8/2 

g Mesh3 Component_3_1 Model

v 5.04566 0 -1.35358e-16
vt -7.31611e-31 4.63222e-32
vn -2.25597e-16 0 1
v 5.64566 -6.84228e-49 1.2326e-32
vt 23.622 1.30243e-31
v 5.64566 2.7 -0
v 5.04566 2.7 -1.35358e-16
vt -1.10925e-30 106.299
f 9/9/3 10/10/3 11/7/3 12/11/3 

g Mesh4 Component_4_1 Model

v 6.37996 1.02 -2.34862
vt 49.2126 -8.63937e-31
vn 0.985266 1.51648e-32 0.171031
v 6.37996 2.5 -2.34862
vt 49.2126 58.2677
v 6.16617 2.5 -1.11703
vt -1.42109e-14 58.2677
v 6.16617 1.02 -1.11703
vt -1.42109e-14 -2.71739e-30
f 13/12/4 14/13/4 15/14/4 16/15/4 

g Mesh5 Component_5_1 Model

v 6.07908 2.34723e-33 -4.58577
vt 2.84217e-14 9.24105e-32
vn 0.171031 -7.5824e-33 -0.985266
v 4.89676 4.69445e-33 -4.791
vt 47.2441 9.38624e-31
v 4.89676 2.7 -4.791
vt 47.2441 106.299
v 6.07908 2.7 -4.58577
vt 2.84217e-14 106.299
f 17/16/5 18/17/5 19/18/5 20/19/5 

g Mesh6 Component_6_1 Model

v 2.98904 -2.34723e-33 -5.12216
vt 1.42109e-14 1.48531e-30
vn 0.171031 -2.27472e-32 -0.985266
v 1.80672 -2.34723e-33 -5.3274
vt 47.2441 1.34826e-30
v 1.80672 2.7 -5.3274
v 2.98904 2.7 -5.12216
vt 1.42109e-14 106.299
f 21/20/6 22/21/6 23/18/6 24/22/6 

g Mesh7 Component_7_1 Model

v 1.60967 3.53797e-32 -5.36161
vt 7.10543e-15 3.05674e-30
vn 0.171031 1.51492e-18 -0.985266
v 0.427348 2.34723e-33 -5.56684
vt 47.2441 6.35152e-30
v 0.427348 2.7 -5.56684
v 1.60967 2.7 -5.36161
vt 7.10543e-15 106.299
f 25/23/7 26/24/7 27/18/7 28/25/7 

g Mesh8 Component_8_1 Model

v 1.48894e-15 1.36846e-48 -4.77763
vt -1.75955e-30 2.56922e-31
vn -1 0 -0
v 1.48894e-15 -2.73691e-48 -3.57763
vt 47.2441 1.05074e-30
v 1.48894e-15 2.7 -3.57763
v 1.48894e-15 2.7 -4.77763
vt -3.54565e-30 106.299
f 29/26/8 30/27/8 31/18/8 32/28/8 

g Mesh9 Component_9_1 Model

v 4.51195e-17 2.7 -0.82
vn -1 -7.5824e-33 -6.06592e-32
v 4.51195e-17 2.7 -2.02
vt -1.0335e-29 106.299
v 4.51195e-17 5.47382e-48 -2.02
vt -8.54893e-30 1.24828e-30
v 4.51195e-17 0 -0.82
vt 47.2441 2.0421e-30
f 33/18/9 34/29/9 35/30/9 36/31/9 

g Mesh10 Component_10_1 Model

v 6.40551 -3.46921e-33 -4.22835
vt -240.375 154.66
vn -7.84344e-35 -1 -0
v 5.7236 -4.25397e-34 -0.3
vt -213.527 0
v 0.3 -5.34553e-51 -0.3
vt -7.26609e-68 0
v 0.3 -3.79711e-33 -5.2882
vt -5.68434e-14 196.386
f 37/32/10 38/33/10 39/34/10 40/35/10 

g Mesh11 Component_11_1 Model

v 9.02389e-17 3.6 -9.02389e-17
vt 3.55271e-15 141.732
vn 1.12787e-17 -1.49979e-17 1
v 0 0 -1.35358e-16
vt 6.01049e-32 -7.99248e-32
v 5.97227 0 -0
vt 235.129 3.97735e-32
v 5.97227 3.6 -9.02389e-17
vt 235.129 141.732
f 41/36/11 42/37/11 43/38/11 44/39/11 

v 1.80478e-15 3.6 -5.64103
vt -222.088 141.732
vn -1 4.95322e-17 -3.39225e-16
v 1.80478e-15 0 -5.64103
vt -222.088 -2.12167e-31
vt -5.32907e-15 -8.9542e-47
vt -3.55271e-15 141.732
f 45/40/12 46/41/12 42/42/12 41/43/12 

v 6.74814 3.6 -4.46962
vt -231.664 141.732
vn 0.171031 -5.22597e-17 -0.985266
v 6.74814 0 -4.46962
vt -231.664 1.14352e-14
vt 37.9839 1.14352e-14
vt 37.9839 141.732
f 47/44/13 48/45/13 46/46/13 45/47/13 

vt 40.2143 -1.10747e-14
vn 0.985266 4.78049e-17 0.171031
vt 218.815 -1.10747e-14
vt 218.815 141.732
vt 40.2143 141.732
f 43/48/14 48/49/14 47/50/14 44/51/14 

vt -235.129 -1.40385e-65
vn 7.84344e-35 -1 -7.61217e-34
vt 0 5.32907e-15
vt -7.10543e-14 222.088
vt -265.675 175.969
f 43/52/15 42/53/15 46/54/15 48/55/15 

vt 265.675 175.969
vn 0 1 -0
vt 7.10543e-14 222.088
vt 3.55271e-15 3.55271e-15
vt 235.129 3.55271e-15
f 47/56/16 45/57/16 41/58/16 44/59/16 

